<svg
  xmlns="http://www.w3.org/2000/svg"
  viewBox="0 0 120 120"
  width="256"
  height="256"
  font-family="Helvetica Neue"
  font-weight="300"
>
  <path fill="#000" d="
    M 0 90
    l 110 0
    l 0 -90
    l -110 0
    z
  " />

  <path fill="#fff" d="
    M 5 85
    l 100 0
    l 0 -80
    l -100 0
    z

    m 35 -55
    l 30 15
    l -30 15
    z

    m -30 -20
    l 10 0
    l 0 10
    l -10 0
    z

    m 0 15
    l 10 0
    l 0 10
    l -10 0
    z

    m 0 15
    l 10 0
    l 0 10
    l -10 0
    z

    m 0 15
    l 10 0
    l 0 10
    l -10 0
    z

    m 0 15
    l 10 0
    l 0 10
    l -10 0
    z

    m 80 -60
    l 10 0
    l 0 10
    l -10 0
    z

    m 0 15
    l 10 0
    l 0 10
    l -10 0
    z

    m 0 15
    l 10 0
    l 0 10
    l -10 0
    z

    m 0 15
    l 10 0
    l 0 10
    l -10 0
    z

    m 0 15
    l 10 0
    l 0 10
    l -10 0
    z
  " />

  <path stroke="#000" stroke-width="10" d="
    M 10 85
    m 2 0
    l 3 0
    l 0 20
    l 10 0
    l 0 -30
    l -13 0
    z
    m -2 0

    m 20 -10
    l 0 30
    l 25 0
    l 0 -30
    z

    m 10 10
    l 5 0
    l 0 10
    l -5 0
    z

    m 20 10
    l 0 10
    l 10 0
    l 0 -10
    l 2 0
    l 0 10
    l 8 0
    l 0 -10
    l 2 0
    l 0 10
    l 8 0
    l 0 -20
    l -30 0
    z

    m 35 -20
    m 0 6
    l 0 24
    l 20 0
    l 0 -20
    l -10 0
    l 0 -4
    z

    m 10 12
    l 2 0
    l 0 4
    l -2 0
    z
  " />

  <path fill="#fff" d="
    M 10 85
    m 2 0
    l 3 0
    l 0 20
    l 10 0
    l 0 -30
    l -13 0
    z
    m -2 0

    m 20 -10
    l 0 30
    l 25 0
    l 0 -30
    z

    m 10 10
    l 5 0
    l 0 10
    l -5 0
    z

    m 20 10
    l 0 10
    l 10 0
    l 0 -10
    l 2 0
    l 0 10
    l 8 0
    l 0 -10
    l 2 0
    l 0 10
    l 8 0
    l 0 -20
    l -30 0
    z

    m 35 -20
    m 0 6
    l 0 24
    l 20 0
    l 0 -20
    l -10 0
    l 0 -4
    z

    m 10 12
    l 2 0
    l 0 4
    l -2 0
    z
  " />

</svg>
